<svg width="28" height="28" viewBox="0 0 28 28" fill="none" xmlns="http://www.w3.org/2000/svg">
<path d="M4.62104 12.8634C4.62104 12.7925 4.62104 12.7392 4.62104 12.6856C4.62104 11.982 4.62104 11.2783 4.62104 10.5747C4.62104 9.81446 5.09011 9.25096 5.83571 9.10904C5.8495 9.10634 5.863 9.10065 5.89059 9.09197C5.87769 9.0767 5.8631 9.06294 5.8471 9.05095C4.50107 8.32785 4.15527 6.39781 5.31085 5.21511C5.70854 4.8079 6.10723 4.40159 6.50692 3.99617C6.81674 3.68358 7.15624 3.68777 7.46096 4.00426C7.84885 4.40688 8.23565 4.81069 8.62134 5.2157C9.73103 6.38553 9.4938 8.18413 8.11868 9.02969C8.09528 9.04406 8.07339 9.06173 8.05869 9.07221C8.24494 9.14736 8.43959 9.20006 8.60724 9.29857C9.03763 9.55128 9.28596 9.93992 9.30065 10.4364C9.32255 11.1792 9.31025 11.923 9.31235 12.6664C9.31235 12.7263 9.31235 12.7838 9.31235 12.8521H11.6565C11.6565 12.7865 11.6565 12.7239 11.6565 12.661C11.6565 11.3987 11.6715 10.1357 11.6511 8.87369C11.6388 8.11018 12.1247 7.46284 12.9318 7.33588C12.9111 7.31606 12.8889 7.29784 12.8655 7.28139C11.5128 6.5044 11.23 4.67106 12.2956 3.5201C12.7212 3.05989 13.1687 2.61676 13.6105 2.16943C13.8465 1.92989 14.2004 1.94666 14.4502 2.20506C14.8701 2.63861 15.29 3.07337 15.703 3.51441C16.116 3.95545 16.3328 4.48333 16.3469 5.08546C16.3676 6.02533 15.9744 6.75052 15.1793 7.25654C15.1493 7.2751 15.1194 7.29307 15.0912 7.31193C15.0879 7.31402 15.087 7.32031 15.0807 7.33379C15.1706 7.35714 15.2606 7.37451 15.3461 7.40385C15.9759 7.61913 16.3448 8.13832 16.3463 8.8162C16.3487 10.0987 16.3487 11.3811 16.3463 12.6634C16.3463 12.7233 16.3463 12.7811 16.3463 12.8515H18.689C18.689 12.7958 18.689 12.7386 18.689 12.6814C18.689 11.9977 18.689 11.314 18.689 10.6304C18.689 9.80698 19.1191 9.27731 19.9237 9.10574C19.9315 9.10395 19.9378 9.09496 19.9339 9.09826C19.7387 8.93597 19.5221 8.79105 19.3488 8.60571C18.4466 7.64099 18.4577 6.18851 19.365 5.23157C19.7635 4.81119 20.1647 4.3934 20.5686 3.97821C20.8796 3.65693 21.2233 3.65634 21.5325 3.97821C21.9224 4.38033 22.3051 4.78664 22.6935 5.18906C23.7996 6.33433 23.5536 8.22126 22.1686 9.00783C22.1471 9.02237 22.1264 9.03806 22.1065 9.05484C22.2106 9.08269 22.3015 9.10095 22.3885 9.13089C23.0138 9.34558 23.3782 9.86776 23.3827 10.5645C23.3869 11.2532 23.3827 11.9418 23.3827 12.6305C23.3827 12.6904 23.3827 12.7503 23.3827 12.8353C23.4541 12.8353 23.5164 12.8329 23.5788 12.8353C23.9276 12.8503 24.286 12.8206 24.6231 12.8916C25.4353 13.062 25.9578 13.7246 25.986 14.601C26.0067 15.2489 26.0058 15.8989 25.9746 16.5472C25.935 17.3682 25.5847 18.0547 24.9602 18.5937C24.9216 18.6234 24.8908 18.662 24.8704 18.7062C24.8501 18.7505 24.8409 18.799 24.8436 18.8476C24.8469 20.6142 24.8436 22.3807 24.8469 24.1473C24.8469 24.8479 24.5704 25.3932 23.9672 25.7597C23.7088 25.9151 23.413 25.9979 23.1113 25.9992C23.0012 26.001 22.8914 25.9992 22.7813 25.9992C16.8482 25.9992 10.9151 25.9992 4.98214 25.9992C4.09228 25.998 3.39138 25.4623 3.20183 24.6276C3.16844 24.4665 3.15275 24.3022 3.15504 24.1377C3.15264 22.3859 3.15294 20.6344 3.15594 18.8832C3.15594 18.7473 3.11785 18.6617 3.01138 18.5694C2.37166 18.017 2.04595 17.3062 2.01715 16.4684C1.99706 15.8852 1.99166 15.3007 2.01715 14.7174C2.04715 14.0117 2.31527 13.4183 2.9601 13.0503C3.19073 12.9188 3.44506 12.8673 3.70989 12.8643C4.00651 12.861 4.30493 12.8634 4.62104 12.8634ZM13.9935 14.0072H3.90124C3.48645 14.0072 3.28761 14.1707 3.21353 14.58C3.19434 14.6832 3.1849 14.7879 3.18533 14.8929C3.19073 15.4812 3.16614 16.0726 3.21742 16.6571C3.28281 17.4017 3.90094 18.0023 4.63753 18.1161C5.34024 18.2248 6.10923 17.8125 6.39565 17.1364C6.49402 16.9038 6.51562 16.6364 6.55611 16.3825C6.5939 16.1501 6.70607 15.9819 6.92471 15.8953C7.14335 15.8088 7.34819 15.8471 7.52754 15.998C7.6898 16.1346 7.72609 16.3238 7.73748 16.5238C7.79747 17.6847 8.98154 18.4485 10.0567 18.0041C10.7394 17.7218 11.096 17.1879 11.1278 16.4472C11.1382 16.1996 11.2432 16.0139 11.467 15.9082C11.6907 15.8025 11.9075 15.8364 12.0968 15.9936C12.2599 16.1283 12.2959 16.3157 12.3067 16.5175C12.3538 17.3667 13.0247 18.0631 13.8465 18.1233C14.7253 18.1877 15.4886 17.6188 15.6643 16.7625C15.6913 16.6313 15.6892 16.4948 15.7063 16.3615C15.7217 16.2314 15.781 16.1105 15.8744 16.0185C15.9678 15.9265 16.0898 15.869 16.2204 15.8555C16.499 15.8256 16.7563 15.9828 16.8379 16.2481C16.8651 16.3542 16.8802 16.4631 16.8829 16.5726C16.9581 17.6649 18.1104 18.4108 19.1388 18.0311C19.8239 17.7784 20.2431 17.1906 20.2743 16.44C20.2923 16.0091 20.6966 15.7334 21.0841 15.8956C21.3381 16.0022 21.4395 16.21 21.4515 16.4786C21.4815 17.143 21.7859 17.649 22.387 17.9371C23.4793 18.4605 24.7536 17.691 24.8073 16.478C24.8319 15.9202 24.7998 15.36 24.822 14.8013C24.8442 14.2426 24.5955 13.9997 24.0257 14.0015C20.6813 14.0129 17.3375 14.0072 13.9935 14.0072ZM4.33372 21.3112H23.6643V19.2009C23.1287 19.2857 22.6125 19.2608 22.1098 19.0671C21.6072 18.8734 21.2065 18.5524 20.8643 18.1374C20.2644 18.8704 19.5125 19.2656 18.5774 19.2662C17.6369 19.2662 16.8904 18.8506 16.289 18.1401C15.694 18.8656 14.9493 19.2599 14.0202 19.2662C13.091 19.2725 12.3334 18.891 11.7426 18.1706C11.1442 18.9021 10.393 19.2955 9.45811 19.2952C8.51997 19.2943 7.77017 18.8799 7.17034 18.1664C6.42054 19.0647 5.47101 19.394 4.33402 19.2255L4.33372 21.3112ZM23.6658 22.4981H4.32562C4.32562 22.5613 4.32562 22.6149 4.32562 22.6688C4.32562 23.1578 4.32562 23.6469 4.32562 24.1359C4.32562 24.6033 4.54786 24.8276 5.01123 24.8276H23.0039C23.443 24.8276 23.6718 24.6018 23.6727 24.1671C23.6737 23.663 23.6737 23.1591 23.6727 22.6553C23.6724 22.6047 23.6685 22.5559 23.6658 22.4981ZM15.1679 12.8569C15.1712 12.8119 15.1754 12.7832 15.1754 12.7542C15.1754 11.4417 15.1754 10.1294 15.1754 8.8171C15.1754 8.58146 15.0729 8.48325 14.8335 8.48235C14.2837 8.48076 13.7338 8.48076 13.184 8.48235C12.9225 8.48235 12.8331 8.57218 12.8328 8.83327C12.8328 10.1258 12.8328 11.4181 12.8328 12.7104C12.8328 12.758 12.8388 12.8054 12.8421 12.8569H15.1679ZM8.12618 12.8533C8.13067 12.814 8.13607 12.7901 8.13607 12.7658C8.13607 12.0275 8.13877 11.2891 8.13607 10.5501C8.13607 10.3265 8.0308 10.2319 7.79357 10.231C7.24892 10.2284 6.70427 10.2284 6.15962 10.231C5.88429 10.231 5.79402 10.3262 5.79372 10.6037C5.79372 11.3024 5.79372 12.001 5.79372 12.6997C5.79372 12.7482 5.79792 12.7967 5.80061 12.8536L8.12618 12.8533ZM19.8718 12.8533H22.1962C22.2014 12.8217 22.2049 12.7899 22.2067 12.758C22.2067 12.0251 22.2091 11.2909 22.2067 10.5591C22.2067 10.3265 22.1035 10.2337 21.8567 10.2325C21.3168 10.2301 20.777 10.2301 20.2371 10.2325C19.9531 10.2325 19.8643 10.3253 19.864 10.6133C19.864 11.3064 19.864 11.9995 19.864 12.6928C19.8649 12.7413 19.8691 12.7904 19.8718 12.853V12.8533ZM14.0516 3.46531C13.7613 3.73209 13.4833 3.97611 13.2191 4.23361C12.9222 4.52285 12.8031 4.88245 12.8385 5.29505C12.9144 6.17803 13.9065 6.66788 14.6359 6.18133C15.2144 5.79538 15.3617 4.9597 14.9178 4.39739C14.647 4.05396 14.3228 3.75454 14.0516 3.46531ZM7.02038 5.22918C6.73246 5.48937 6.45743 5.73519 6.18631 5.98521C6.12453 6.0421 6.05884 6.10677 6.02645 6.18133C5.94158 6.37565 5.83511 6.57237 5.80781 6.77747C5.74783 7.23618 5.91758 7.62482 6.29188 7.90268C6.63948 8.16048 7.02608 8.20869 7.42467 8.02784C8.16037 7.69429 8.37511 6.74274 7.84635 6.10557C7.58003 5.784 7.27351 5.49506 7.02038 5.22918ZM21.0391 5.17379C20.7485 5.4762 20.4693 5.76094 20.1976 6.05198C20.0062 6.25321 19.8914 6.51496 19.873 6.79184C19.8365 7.29816 20.0257 7.70447 20.4645 7.96735C20.8829 8.21797 21.3085 8.18863 21.7034 7.90747C22.279 7.49936 22.384 6.65561 21.9188 6.10408C21.6495 5.7855 21.3453 5.49506 21.0394 5.17379H21.0391Z" fill="#696969"/>
</svg>
