<svg width="13" height="9" viewBox="0 0 13 9" fill="none" xmlns="http://www.w3.org/2000/svg">
<path d="M5.04721 5.79963C5.3501 5.51291 5.64397 5.23375 5.93904 4.95553C7.58025 3.40797 9.22152 1.86027 10.8629 0.312453C10.9196 0.258965 10.9753 0.20472 11.0337 0.152933C11.264 -0.0517585 11.5599 -0.0517585 11.784 0.157658C12.1352 0.485266 12.4846 0.814952 12.8324 1.14672C13.0585 1.36218 13.0551 1.64342 12.8269 1.85851C12.1021 2.54245 11.3766 3.22602 10.6506 3.9092C8.92184 5.53905 7.1931 7.16915 5.46436 8.7995C5.31141 8.9439 5.14242 9.04256 4.92152 8.9817C4.82604 8.95557 4.73869 8.90804 4.66694 8.84316C3.16445 7.42286 1.66436 6.00035 0.166681 4.57563C-0.0562273 4.36395 -0.055225 4.08252 0.167683 3.87065C0.515944 3.53989 0.865474 3.2102 1.21627 2.88159C1.44499 2.66726 1.74167 2.66801 1.97039 2.8848C2.96706 3.82907 3.9632 4.77409 4.9588 5.71987C4.98406 5.74349 5.01072 5.76674 5.04721 5.79963Z" fill="#878787"/>
</svg>
